<svg width="20" height="21" viewBox="0 0 20 21" fill="none" xmlns="http://www.w3.org/2000/svg">
<path d="M4.18182 10.2128C4.18182 9.56415 4.28955 8.94231 4.48182 8.35905L1.11637 5.78906C0.460457 7.12081 0.0909119 8.6214 0.0909119 10.2128C0.0909119 11.8028 0.460003 13.3025 1.115 14.6333L4.47864 12.0583C4.28818 11.4778 4.18182 10.8582 4.18182 10.2128Z" fill="#FDBA12"/>
<path d="M10.0909 4.31207C11.5 4.31207 12.7727 4.81136 13.7727 5.62838L16.6818 2.72341C14.9091 1.18015 12.6364 0.226959 10.0909 0.226959C6.13909 0.226959 2.74273 2.48693 1.11636 5.78906L4.48182 8.35904C5.25727 6.00512 7.46773 4.31207 10.0909 4.31207Z" fill="#EB4335"/>
<path d="M10.0909 16.1135C7.46773 16.1135 5.25727 14.4204 4.48182 12.0665L1.11636 14.636C2.74273 17.9386 6.13909 20.1986 10.0909 20.1986C12.53 20.1986 14.8586 19.3325 16.6064 17.7098L13.4118 15.2402C12.5105 15.808 11.3755 16.1135 10.0909 16.1135Z" fill="#34A853"/>
<path d="M19.6364 10.2128C19.6364 9.62272 19.5455 8.98726 19.4091 8.39719H10.0909V12.2553H15.4545C15.1864 13.5707 14.4564 14.582 13.4118 15.2402L16.6064 17.7099C18.4423 16.0059 19.6364 13.4677 19.6364 10.2128Z" fill="#4285F4"/>
</svg>
